<svg width="64" height="64" viewBox="0 0 64 64" fill="none" xmlns="http://www.w3.org/2000/svg">
<path d="M14 6C14 5.44771 14.4477 5 15 5H42.2325C42.4796 5 42.7179 5.09144 42.9015 5.25671L43.5671 4.51714L42.9015 5.25671L47.3115 9.22569L50.7071 12.6213C50.8946 12.8089 51 13.0632 51 13.3284V32V58C51 58.5523 50.5523 59 50 59H15C14.4477 59 14 58.5523 14 58V6Z" fill="#343B47" stroke="#85B6FF" stroke-width="2"/>
<path d="M13 6C13 5.44771 13.4477 5 14 5H40.4193C41.0354 5 41.5049 5.55171 41.4064 6.15986L40.6566 10.7901C40.343 12.7267 41.942 14.4383 43.8954 14.2569L49.9075 13.6986C50.4938 13.6442 51 14.1055 51 14.6943V32V58C51 58.5523 50.5523 59 50 59H14C13.4477 59 13 58.5523 13 58V6Z" fill="#343B47" stroke="#85B6FF" stroke-width="2"/>
<path d="M29.7539 52.2188H28.6562C28.6458 52.3906 28.6172 52.5378 28.5703 52.6602C28.5234 52.7826 28.4596 52.8828 28.3789 52.9609C28.2982 53.0391 28.2005 53.0964 28.0859 53.1328C27.9714 53.1693 27.8424 53.1875 27.6992 53.1875C27.5924 53.1875 27.4948 53.1758 27.4062 53.1523C27.3203 53.1263 27.2422 53.0872 27.1719 53.0352C27.1068 52.9883 27.0482 52.9297 26.9961 52.8594C26.9466 52.7891 26.9036 52.7083 26.8672 52.6172C26.8151 52.4844 26.776 52.3294 26.75 52.1523C26.7266 51.9727 26.7148 51.7695 26.7148 51.543V50.7695C26.7148 50.6029 26.7227 50.4479 26.7383 50.3047C26.7539 50.1589 26.7786 50.026 26.8125 49.9062C26.8568 49.7526 26.9154 49.6185 26.9883 49.5039C27.0638 49.3867 27.1549 49.2969 27.2617 49.2344C27.3242 49.1979 27.3919 49.1706 27.4648 49.1523C27.5404 49.1341 27.6211 49.125 27.707 49.125C27.8685 49.125 28.0065 49.1471 28.1211 49.1914C28.2383 49.2331 28.3359 49.2956 28.4141 49.3789C28.4896 49.4648 28.5469 49.5716 28.5859 49.6992C28.6276 49.8268 28.6536 49.9753 28.6641 50.1445H29.7578C29.7318 49.8477 29.6693 49.5807 29.5703 49.3438C29.4714 49.1068 29.3359 48.9062 29.1641 48.7422C28.9922 48.5781 28.7839 48.4518 28.5391 48.3633C28.2969 48.2747 28.0195 48.2305 27.707 48.2305C27.4961 48.2305 27.2982 48.2578 27.1133 48.3125C26.931 48.3646 26.763 48.4401 26.6094 48.5391C26.4375 48.6562 26.2839 48.7995 26.1484 48.9688C26.013 49.138 25.9036 49.3307 25.8203 49.5469C25.7474 49.724 25.6927 49.9167 25.6562 50.125C25.6198 50.3307 25.6016 50.5482 25.6016 50.7773V51.543C25.6016 51.7878 25.6211 52.0195 25.6602 52.2383C25.7018 52.457 25.7604 52.6576 25.8359 52.8398C25.9141 53.0221 26.0091 53.1888 26.1211 53.3398C26.2357 53.4909 26.3659 53.6198 26.5117 53.7266C26.6706 53.8411 26.849 53.9297 27.0469 53.9922C27.2474 54.0521 27.4648 54.082 27.6992 54.082C27.9961 54.082 28.2669 54.0391 28.5117 53.9531C28.7565 53.8646 28.9674 53.7396 29.1445 53.5781C29.3216 53.4167 29.4622 53.2214 29.5664 52.9922C29.6732 52.763 29.7357 52.5052 29.7539 52.2188ZM33.5625 52.5156C33.5625 52.6172 33.5417 52.7109 33.5 52.7969C33.4583 52.8802 33.3984 52.9518 33.3203 53.0117C33.2422 53.0716 33.1458 53.1185 33.0312 53.1523C32.9193 53.1862 32.7904 53.2031 32.6445 53.2031C32.4805 53.2031 32.3294 53.1849 32.1914 53.1484C32.056 53.112 31.9401 53.0547 31.8438 52.9766C31.7448 52.8984 31.668 52.7982 31.6133 52.6758C31.5586 52.5534 31.5286 52.4062 31.5234 52.2344H30.4453C30.4453 52.5286 30.5013 52.7852 30.6133 53.0039C30.7279 53.2227 30.8828 53.4128 31.0781 53.5742C31.2839 53.7383 31.5247 53.8633 31.8008 53.9492C32.0794 54.0326 32.3607 54.0742 32.6445 54.0742C32.9336 54.0742 33.2005 54.0404 33.4453 53.9727C33.6901 53.9023 33.901 53.7995 34.0781 53.6641C34.2552 53.5312 34.3932 53.3685 34.4922 53.1758C34.5938 52.9805 34.6445 52.7578 34.6445 52.5078C34.6445 52.2188 34.5781 51.9635 34.4453 51.7422C34.3125 51.5208 34.1341 51.3268 33.9102 51.1602C33.7617 51.0586 33.599 50.9688 33.4219 50.8906C33.2448 50.8125 33.0586 50.7461 32.8633 50.6914C32.681 50.6419 32.5169 50.5885 32.3711 50.5312C32.2279 50.474 32.1055 50.4102 32.0039 50.3398C31.9023 50.2721 31.8242 50.1953 31.7695 50.1094C31.7174 50.0234 31.6914 49.9271 31.6914 49.8203C31.6914 49.7188 31.7109 49.625 31.75 49.5391C31.7917 49.4505 31.8516 49.3737 31.9297 49.3086C32.0078 49.2461 32.1029 49.1979 32.2148 49.1641C32.3294 49.1276 32.4596 49.1094 32.6055 49.1094C32.7643 49.1094 32.9023 49.1315 33.0195 49.1758C33.1393 49.2174 33.2396 49.276 33.3203 49.3516C33.3984 49.4297 33.457 49.5221 33.4961 49.6289C33.5378 49.7357 33.5612 49.8529 33.5664 49.9805H34.6367C34.6367 49.7253 34.5872 49.4909 34.4883 49.2773C34.3893 49.0638 34.2513 48.8789 34.0742 48.7227C33.8971 48.569 33.6849 48.4492 33.4375 48.3633C33.1927 48.2773 32.9219 48.2344 32.625 48.2344C32.3385 48.2344 32.0729 48.2721 31.8281 48.3477C31.5833 48.4206 31.3711 48.526 31.1914 48.6641C31.0117 48.8021 30.8711 48.9688 30.7695 49.1641C30.668 49.3594 30.6172 49.5768 30.6172 49.8164C30.6172 50.0247 30.6549 50.2174 30.7305 50.3945C30.8086 50.5716 30.9232 50.7331 31.0742 50.8789C31.2253 51.0247 31.4193 51.1589 31.6562 51.2812C31.8958 51.4036 32.1732 51.5078 32.4883 51.5938C32.6914 51.6484 32.8607 51.7083 32.9961 51.7734C33.1341 51.8359 33.2461 51.9049 33.332 51.9805C33.4154 52.0586 33.474 52.1419 33.5078 52.2305C33.5443 52.319 33.5625 52.4141 33.5625 52.5156ZM38.3672 52.5156C38.3672 52.6172 38.3464 52.7109 38.3047 52.7969C38.263 52.8802 38.2031 52.9518 38.125 53.0117C38.0469 53.0716 37.9505 53.1185 37.8359 53.1523C37.724 53.1862 37.5951 53.2031 37.4492 53.2031C37.2852 53.2031 37.1341 53.1849 36.9961 53.1484C36.8607 53.112 36.7448 53.0547 36.6484 52.9766C36.5495 52.8984 36.4727 52.7982 36.418 52.6758C36.3633 52.5534 36.3333 52.4062 36.3281 52.2344H35.25C35.25 52.5286 35.306 52.7852 35.418 53.0039C35.5326 53.2227 35.6875 53.4128 35.8828 53.5742C36.0885 53.7383 36.3294 53.8633 36.6055 53.9492C36.8841 54.0326 37.1654 54.0742 37.4492 54.0742C37.7383 54.0742 38.0052 54.0404 38.25 53.9727C38.4948 53.9023 38.7057 53.7995 38.8828 53.6641C39.0599 53.5312 39.1979 53.3685 39.2969 53.1758C39.3984 52.9805 39.4492 52.7578 39.4492 52.5078C39.4492 52.2188 39.3828 51.9635 39.25 51.7422C39.1172 51.5208 38.9388 51.3268 38.7148 51.1602C38.5664 51.0586 38.4036 50.9688 38.2266 50.8906C38.0495 50.8125 37.8633 50.7461 37.668 50.6914C37.4857 50.6419 37.3216 50.5885 37.1758 50.5312C37.0326 50.474 36.9102 50.4102 36.8086 50.3398C36.707 50.2721 36.6289 50.1953 36.5742 50.1094C36.5221 50.0234 36.4961 49.9271 36.4961 49.8203C36.4961 49.7188 36.5156 49.625 36.5547 49.5391C36.5964 49.4505 36.6562 49.3737 36.7344 49.3086C36.8125 49.2461 36.9076 49.1979 37.0195 49.1641C37.1341 49.1276 37.2643 49.1094 37.4102 49.1094C37.569 49.1094 37.707 49.1315 37.8242 49.1758C37.944 49.2174 38.0443 49.276 38.125 49.3516C38.2031 49.4297 38.2617 49.5221 38.3008 49.6289C38.3424 49.7357 38.3659 49.8529 38.3711 49.9805H39.4414C39.4414 49.7253 39.3919 49.4909 39.293 49.2773C39.194 49.0638 39.056 48.8789 38.8789 48.7227C38.7018 48.569 38.4896 48.4492 38.2422 48.3633C37.9974 48.2773 37.7266 48.2344 37.4297 48.2344C37.1432 48.2344 36.8776 48.2721 36.6328 48.3477C36.388 48.4206 36.1758 48.526 35.9961 48.6641C35.8164 48.8021 35.6758 48.9688 35.5742 49.1641C35.4727 49.3594 35.4219 49.5768 35.4219 49.8164C35.4219 50.0247 35.4596 50.2174 35.5352 50.3945C35.6133 50.5716 35.7279 50.7331 35.8789 50.8789C36.0299 51.0247 36.224 51.1589 36.4609 51.2812C36.7005 51.4036 36.9779 51.5078 37.293 51.5938C37.4961 51.6484 37.6654 51.7083 37.8008 51.7734C37.9388 51.8359 38.0508 51.9049 38.1367 51.9805C38.2201 52.0586 38.2786 52.1419 38.3125 52.2305C38.349 52.319 38.3672 52.4141 38.3672 52.5156Z" fill="#85B6FF"/>
<path d="M25 22.0046C27.3367 22.0023 29.6739 21.9959 32.0106 22.004C32.0411 24.5144 32.0028 27.0247 32.0363 29.5339C31.1077 29.5537 30.1786 29.5356 29.25 29.5403C28.0912 29.5421 26.9331 29.5602 25.7743 29.5643C25.7127 28.7189 25.5728 27.8765 25.5567 27.0294C25.7032 26.9255 25.8783 26.8718 26.0422 26.8005C27.9525 25.985 29.8778 25.2003 31.7798 24.3673C29.6058 24.3036 27.4287 24.3854 25.2547 24.3065C25.1459 23.5418 25.0401 22.7758 25 22.0046Z" fill="white"/>
<path d="M25.9471 31.0436C26.6497 31.0331 27.3522 31.0395 28.0542 31.0354C28.1989 31.0378 28.3472 31.0337 28.4871 31.0757C28.5481 31.7448 28.5959 32.4155 28.6646 33.084C29.1484 33.2212 29.6512 33.2755 30.1421 33.38C30.7645 33.488 31.3816 33.624 32.0064 33.7145C32.0662 34.5622 31.9616 35.4157 32.0614 36.2605C32.0435 36.264 32.007 36.271 31.9891 36.2745C31.8581 36.285 31.7308 36.2394 31.6046 36.2132C30.5439 35.9364 29.4718 35.7023 28.4129 35.4209C27.7217 35.2371 27.0281 35.0642 26.3358 34.8879C26.1343 33.6141 26.0159 32.3297 25.9471 31.0436Z" fill="white"/>
<path d="M32.0106 22.0041C34.2552 22.0157 36.4992 22.0006 38.7432 22.0181C38.7109 22.6725 38.6248 23.3229 38.5763 23.9767C38.5542 24.1828 38.5572 24.3936 38.501 24.595C38.3581 24.7036 38.1847 24.7643 38.0221 24.8372C37.179 25.2021 36.3288 25.5507 35.4887 25.9225C34.6133 26.3049 33.7165 26.6447 32.8638 27.0732C33.0934 27.0896 33.3242 27.0907 33.555 27.0896C35.1395 27.0831 36.7246 27.0878 38.3091 27.0796C38.1435 29.6653 37.8822 32.2445 37.6466 34.8249C35.7835 35.299 33.9287 35.8028 32.0614 36.2605C31.9616 35.4157 32.0662 34.5622 32.0064 33.7145C32.346 33.5587 32.7126 33.4746 33.0695 33.3683C33.7392 33.1722 34.4136 32.993 35.0779 32.781C35.1353 31.6992 35.2274 30.6192 35.2878 29.5374C34.2038 29.5444 33.1197 29.5158 32.0363 29.5339C32.0028 27.0248 32.0411 24.5144 32.0106 22.0041Z" fill="white"/>
</svg>
