<svg width="64" height="64" viewBox="0 0 64 64" fill="none" xmlns="http://www.w3.org/2000/svg">
<path d="M13 6C13 5.44771 13.4477 5 14 5H42.0161C42.2589 5 42.4933 5.08827 42.6757 5.24836L47.2181 9.23432L50.6981 12.6273C50.8911 12.8155 51 13.0737 51 13.3433V32V58C51 58.5523 50.5523 59 50 59H14C13.4477 59 13 58.5523 13 58V6Z" fill="#343B47" stroke="#FF4D00" stroke-width="2"/>
<path d="M13 6C13 5.44771 13.4477 5 14 5H40.4193C41.0354 5 41.5049 5.55171 41.4064 6.15986L40.6566 10.7901C40.343 12.7267 41.942 14.4383 43.8954 14.2569L49.9075 13.6986C50.4938 13.6442 51 14.1055 51 14.6943V32V58C51 58.5523 50.5523 59 50 59H14C13.4477 59 13 58.5523 13 58V6Z" fill="#343B47" stroke="#FF4D00" stroke-width="2"/>
<path d="M25.0859 48.3125V52.2539C25.0859 52.3867 25.0651 52.5117 25.0234 52.6289C24.9844 52.7435 24.9284 52.8424 24.8555 52.9258C24.7826 53.0091 24.694 53.0755 24.5898 53.125C24.4857 53.1719 24.3711 53.1953 24.2461 53.1953C24.0898 53.1953 23.957 53.1745 23.8477 53.1328C23.7383 53.0911 23.6497 53.0273 23.582 52.9414C23.5299 52.8711 23.4909 52.7852 23.4648 52.6836C23.4388 52.582 23.4258 52.4635 23.4258 52.3281H22.3242C22.3268 52.6224 22.375 52.8789 22.4688 53.0977C22.5625 53.3164 22.694 53.4974 22.8633 53.6406C23.0299 53.7865 23.2305 53.8958 23.4648 53.9688C23.6992 54.0417 23.9596 54.0781 24.2461 54.0781C24.5169 54.0781 24.7695 54.0339 25.0039 53.9453C25.2409 53.8568 25.4466 53.7318 25.6211 53.5703C25.7956 53.4089 25.9323 53.2174 26.0312 52.9961C26.1328 52.7721 26.1849 52.5247 26.1875 52.2539L26.1836 48.3125H25.0859ZM30.1602 52.5156C30.1602 52.6172 30.1393 52.7109 30.0977 52.7969C30.056 52.8802 29.9961 52.9518 29.918 53.0117C29.8398 53.0716 29.7435 53.1185 29.6289 53.1523C29.5169 53.1862 29.388 53.2031 29.2422 53.2031C29.0781 53.2031 28.9271 53.1849 28.7891 53.1484C28.6536 53.112 28.5378 53.0547 28.4414 52.9766C28.3424 52.8984 28.2656 52.7982 28.2109 52.6758C28.1562 52.5534 28.1263 52.4062 28.1211 52.2344H27.043C27.043 52.5286 27.099 52.7852 27.2109 53.0039C27.3255 53.2227 27.4805 53.4128 27.6758 53.5742C27.8815 53.7383 28.1224 53.8633 28.3984 53.9492C28.6771 54.0326 28.9583 54.0742 29.2422 54.0742C29.5312 54.0742 29.7982 54.0404 30.043 53.9727C30.2878 53.9023 30.4987 53.7995 30.6758 53.6641C30.8529 53.5312 30.9909 53.3685 31.0898 53.1758C31.1914 52.9805 31.2422 52.7578 31.2422 52.5078C31.2422 52.2188 31.1758 51.9635 31.043 51.7422C30.9102 51.5208 30.7318 51.3268 30.5078 51.1602C30.3594 51.0586 30.1966 50.9688 30.0195 50.8906C29.8424 50.8125 29.6562 50.7461 29.4609 50.6914C29.2786 50.6419 29.1146 50.5885 28.9688 50.5312C28.8255 50.474 28.7031 50.4102 28.6016 50.3398C28.5 50.2721 28.4219 50.1953 28.3672 50.1094C28.3151 50.0234 28.2891 49.9271 28.2891 49.8203C28.2891 49.7188 28.3086 49.625 28.3477 49.5391C28.3893 49.4505 28.4492 49.3737 28.5273 49.3086C28.6055 49.2461 28.7005 49.1979 28.8125 49.1641C28.9271 49.1276 29.0573 49.1094 29.2031 49.1094C29.362 49.1094 29.5 49.1315 29.6172 49.1758C29.737 49.2174 29.8372 49.276 29.918 49.3516C29.9961 49.4297 30.0547 49.5221 30.0938 49.6289C30.1354 49.7357 30.1589 49.8529 30.1641 49.9805H31.2344C31.2344 49.7253 31.1849 49.4909 31.0859 49.2773C30.987 49.0638 30.849 48.8789 30.6719 48.7227C30.4948 48.569 30.2826 48.4492 30.0352 48.3633C29.7904 48.2773 29.5195 48.2344 29.2227 48.2344C28.9362 48.2344 28.6706 48.2721 28.4258 48.3477C28.181 48.4206 27.9688 48.526 27.7891 48.6641C27.6094 48.8021 27.4688 48.9688 27.3672 49.1641C27.2656 49.3594 27.2148 49.5768 27.2148 49.8164C27.2148 50.0247 27.2526 50.2174 27.3281 50.3945C27.4062 50.5716 27.5208 50.7331 27.6719 50.8789C27.8229 51.0247 28.0169 51.1589 28.2539 51.2812C28.4935 51.4036 28.7708 51.5078 29.0859 51.5938C29.2891 51.6484 29.4583 51.7083 29.5938 51.7734C29.7318 51.8359 29.8438 51.9049 29.9297 51.9805C30.013 52.0586 30.0716 52.1419 30.1055 52.2305C30.1419 52.319 30.1602 52.4141 30.1602 52.5156ZM35.9805 51.5742V50.7461C35.9805 50.4883 35.9557 50.2448 35.9062 50.0156C35.8594 49.7865 35.7904 49.5755 35.6992 49.3828C35.6159 49.2135 35.5156 49.0586 35.3984 48.918C35.2839 48.7773 35.1497 48.6576 34.9961 48.5586C34.8424 48.4544 34.6693 48.375 34.4766 48.3203C34.2865 48.263 34.082 48.2344 33.8633 48.2344C33.6471 48.2344 33.4466 48.2617 33.2617 48.3164C33.0768 48.3711 32.9102 48.4492 32.7617 48.5508C32.6107 48.6549 32.4766 48.7799 32.3594 48.9258C32.2448 49.0716 32.1471 49.2344 32.0664 49.4141C31.9831 49.6042 31.9193 49.8112 31.875 50.0352C31.8333 50.2591 31.8125 50.4961 31.8125 50.7461V51.5742C31.8125 51.8086 31.8307 52.0312 31.8672 52.2422C31.9062 52.4531 31.9622 52.6484 32.0352 52.8281C32.1159 53.0234 32.2161 53.1992 32.3359 53.3555C32.4557 53.5091 32.5911 53.6406 32.7422 53.75C32.8958 53.8542 33.0664 53.9349 33.2539 53.9922C33.4414 54.0495 33.6458 54.0781 33.8672 54.0781C34.0755 54.0781 34.2695 54.0521 34.4492 54C34.6315 53.9505 34.7982 53.8802 34.9492 53.7891C35.1159 53.6849 35.2643 53.5547 35.3945 53.3984C35.5247 53.2422 35.6341 53.0703 35.7227 52.8828C35.806 52.6953 35.8698 52.4922 35.9141 52.2734C35.9583 52.0521 35.9805 51.819 35.9805 51.5742ZM34.8672 50.7383V51.5742C34.8672 51.7148 34.8594 51.8503 34.8438 51.9805C34.8307 52.1107 34.8099 52.2305 34.7812 52.3398C34.7448 52.4805 34.6953 52.6068 34.6328 52.7188C34.5729 52.8281 34.4987 52.9193 34.4102 52.9922C34.3398 53.0521 34.2591 53.0977 34.168 53.1289C34.0768 53.1602 33.9766 53.1758 33.8672 53.1758C33.7526 53.1758 33.6497 53.1589 33.5586 53.125C33.4701 53.0911 33.3906 53.043 33.3203 52.9805C33.2448 52.9102 33.1784 52.819 33.1211 52.707C33.0664 52.5924 33.0247 52.4661 32.9961 52.3281C32.9701 52.2188 32.9518 52.1003 32.9414 51.9727C32.931 51.8451 32.9258 51.7122 32.9258 51.5742V50.7383C32.9258 50.5924 32.931 50.4531 32.9414 50.3203C32.9544 50.1875 32.974 50.0651 33 49.9531C33.0339 49.8073 33.0807 49.6797 33.1406 49.5703C33.2031 49.4609 33.2786 49.3698 33.3672 49.2969C33.4323 49.2474 33.5052 49.2096 33.5859 49.1836C33.6693 49.1576 33.7617 49.1445 33.8633 49.1445C33.9701 49.1445 34.0664 49.1589 34.1523 49.1875C34.2409 49.2161 34.3203 49.2565 34.3906 49.3086C34.4792 49.3789 34.556 49.4701 34.6211 49.582C34.6862 49.6914 34.7383 49.8164 34.7773 49.957C34.8086 50.069 34.8307 50.1914 34.8438 50.3242C34.8594 50.4544 34.8672 50.5924 34.8672 50.7383ZM40.5664 54V48.3125H39.4648L39.4609 51.9648L37.8906 48.3125H36.7852V54H37.8906V50.332L39.4727 54H40.5664Z" fill="#FF4D00"/>
<path d="M29.1416 37.4609C27.501 37.0007 26.6807 35.9411 26.6807 34.2822V32.9219C26.6807 31.9603 26.2751 31.4795 25.4639 31.4795V30.0645C26.2568 30.0645 26.6624 29.611 26.6807 28.7041V27.2549C26.6807 26.4118 26.8857 25.7305 27.2959 25.2109C27.7061 24.6914 28.3213 24.3154 29.1416 24.083L29.5244 25.1836C29.1781 25.3112 28.916 25.5345 28.7383 25.8535C28.5605 26.168 28.4671 26.6055 28.458 27.166V28.6016C28.458 29.6315 28.0501 30.3538 27.2344 30.7686C28.0501 31.1878 28.458 31.9147 28.458 32.9492V34.3984C28.4808 35.4648 28.8363 36.1165 29.5244 36.3535L29.1416 37.4609ZM33.4756 36.3535C34.1683 36.1074 34.5238 35.4466 34.542 34.3711V32.9219C34.542 31.8919 34.959 31.1764 35.793 30.7754C34.959 30.3743 34.542 29.6475 34.542 28.5947V27.166C34.5238 26.1042 34.1683 25.4434 33.4756 25.1836L33.8584 24.083C34.6742 24.3109 35.2871 24.6846 35.6973 25.2041C36.1074 25.7191 36.3148 26.3958 36.3193 27.2344V28.7041C36.3376 29.611 36.7432 30.0645 37.5361 30.0645V31.4795C36.7249 31.4795 36.3193 31.9557 36.3193 32.9082V34.3916C36.2829 35.9867 35.4626 37.0098 33.8584 37.4609L33.4756 36.3535Z" fill="white"/>
</svg>
